<svg width="100" height="100" viewBox="0 0 100 100" fill="none" xmlns="http://www.w3.org/2000/svg">
<path d="M87 49.4981C87 69.6238 70.6245 86 50.4995 86C30.3764 85.999 14 69.6238 14 49.4981C14 29.3723 30.3764 13 50.5005 13C57.8569 13 65.0195 15.248 71.0518 19.3572L76.6607 13.7474L81.1731 31.0542L63.8632 26.5428L67.7873 22.6159C62.6577 19.3157 56.6601 17.5046 50.4966 17.5046C32.854 17.5046 18.5018 31.8566 18.5018 49.4971C18.5018 67.1395 32.854 81.4934 50.4966 81.4934C68.1383 81.4934 82.4905 67.1395 82.4905 49.4971L87 49.4981ZM41.4168 49.8308C38.3443 51.9939 36.2496 53.86 35.1376 55.4348C34.0247 57.0058 33.4654 58.8979 33.4654 61.1064V61.1131H49.9026V56.9402H39.354L39.3704 56.9055C40.1679 55.7945 41.6493 54.5476 43.822 53.1695C46.1674 51.6689 47.7683 50.3207 48.6286 49.122C49.4802 47.9165 49.9035 46.4005 49.9035 44.5739C49.9035 42.3423 49.1551 40.5245 47.6594 39.1136C46.1414 37.7017 44.2088 36.9987 41.8344 36.9987C39.2913 36.9987 37.2844 37.7634 35.8436 39.2949C34.3951 40.8312 33.7094 42.8988 33.7846 45.519H38.4291C38.3848 44.111 38.6664 43.0058 39.2739 42.1871C39.8834 41.3722 40.7234 40.9671 41.8036 40.9671C42.8094 40.9671 43.632 41.2941 44.2454 41.9469C44.8674 42.596 45.1703 43.4523 45.1703 44.5238C45.1703 45.5084 44.8887 46.3937 44.3274 47.198C43.77 47.9927 42.8007 48.876 41.4168 49.8308ZM60.8571 61.1112V55.8003H51.3193V53.75V51.7046L60.2274 37.0054H62.8756H65.5219V52.0383H68.2338V55.8042H65.5219V61.1141L60.8571 61.1112ZM60.8571 52.0344V41.9913L55.01 51.7036L54.8123 52.0334H60.8571V52.0344ZM51.977 21.205H49.7241V25.7212H51.977V21.205ZM51.977 72.3868H49.7241V76.903H51.977V72.3868ZM78.6975 50.1799V47.9271H74.1793V50.1799H78.6975ZM27.516 50.1799V47.9271H23.0017V50.1799H27.516Z" fill="black"/>
</svg>
