<svg width="100" height="100" viewBox="0 0 100 100" fill="none" xmlns="http://www.w3.org/2000/svg">
<path d="M44.5069 61C42.0385 61 39.6749 59.5873 38.5856 57.1985C37.0989 53.9393 38.541 50.0776 41.8006 48.5901C43.3803 47.8692 45.1459 47.8063 46.772 48.4152C48.3982 49.0222 49.6907 50.227 50.4108 51.8056C51.1309 53.3842 51.1929 55.1496 50.5858 56.7756C49.9788 58.4015 48.7737 59.6939 47.195 60.414C46.3227 60.8113 45.4075 60.9991 44.5069 61ZM44.495 51.6479C44.0922 51.6479 43.6902 51.7345 43.3128 51.9068C41.8817 52.5594 41.2491 54.2546 41.9018 55.6855C42.2181 56.3791 42.785 56.9077 43.4988 57.1739C44.2125 57.4391 44.9873 57.4127 45.68 57.0973C46.3737 56.7801 46.9024 56.2132 47.1685 55.4996C47.4347 54.786 47.4083 54.0113 47.092 53.3186C46.7757 52.625 46.2087 52.0964 45.495 51.8293C45.1696 51.709 44.8323 51.6479 44.495 51.6479Z" fill="black"/>
<path d="M50.7184 74C50.5432 74 50.3646 73.9716 50.1885 73.9122C49.2858 73.6099 48.792 72.6098 49.084 71.6789L58.6484 41.2267C58.9413 40.2958 59.9084 39.7852 60.812 40.0866C61.7146 40.388 62.2085 41.3881 61.9156 42.3199L52.352 72.773C52.1167 73.523 51.4425 74 50.7184 74Z" fill="black"/>
<path d="M66.5115 66C64.0421 66 61.6784 64.6956 60.59 62.4907C59.869 61.0331 59.807 59.4029 60.4141 57.9016C61.0221 56.4002 62.2263 55.2069 63.8051 54.542C67.064 53.1669 70.9272 54.4991 72.4139 57.5103C73.9016 60.5205 72.4586 64.0854 69.1989 65.458C68.3274 65.8266 67.4131 66 66.5115 66ZM66.5006 57.3672C66.0977 57.3672 65.6957 57.4471 65.3183 57.6054C64.6246 57.8982 64.0959 58.4217 63.8297 59.0806C63.5626 59.7396 63.59 60.4549 63.9063 61.0945C64.559 62.4158 66.2536 63.0015 67.6856 62.3981C69.1168 61.7947 69.7494 60.2302 69.0977 58.9089C68.7804 58.2685 68.2134 57.7804 67.4997 57.5347C67.1752 57.4227 66.837 57.3672 66.5006 57.3672Z" fill="black"/>
<path d="M48.5696 89C47.5904 89 46.6094 88.8258 45.6641 88.4748C43.5889 87.7026 41.9403 86.1729 41.0211 84.1666L23.2241 45.3205C21.693 41.9769 21.5937 38.1002 22.9516 34.6838L30.2912 16.2236C31.9372 12.0835 36.5331 9.99659 40.7504 11.4734L59.5624 18.0558C63.0442 19.2735 65.9184 21.89 67.4512 25.2336L85.2474 64.0788C86.1675 66.0851 86.2458 68.329 85.472 70.3942C84.6964 72.4604 83.1601 74.1019 81.145 75.0171L52.0079 88.2512C50.9094 88.7495 49.7412 89 48.5696 89ZM37.9894 14.4678C36.0701 14.4678 34.2743 15.6178 33.5275 17.4985L26.1879 35.9587C25.1765 38.5032 25.2505 41.391 26.3916 43.8809L44.1887 82.727C44.7214 83.8918 45.678 84.7784 46.8818 85.2265C48.0848 85.6746 49.3913 85.6295 50.5612 85.0982L79.6984 71.8641C80.8682 71.3328 81.7587 70.3804 82.2087 69.1826C82.6587 67.984 82.6126 66.6831 82.0799 65.5183L64.2837 26.6723C63.1426 24.1814 61.0004 22.2332 58.4082 21.3258L39.5962 14.7425C39.0644 14.557 38.5221 14.4678 37.9894 14.4678Z" fill="black"/>
<path d="M40 26C41.6569 26 43 24.6569 43 23C43 21.3431 41.6569 20 40 20C38.3431 20 37 21.3431 37 23C37 24.6569 38.3431 26 40 26Z" fill="black"/>
<path d="M36.2711 87H22.2331C17.6938 87 14 83.2757 14 78.6982V35.7753C14 32.0816 15.5145 28.4933 18.1555 25.9317L23.771 20.4869C24.4591 19.8184 25.5544 19.8419 26.2148 20.5348C26.877 21.2286 26.8554 22.3321 26.1673 22.9988L20.5526 28.4436C18.586 30.3515 17.4578 33.0229 17.4578 35.7745V78.6982C17.4578 81.3539 19.6 83.5137 22.2331 83.5137H36.2711C37.2254 83.5137 38 84.2937 38 85.2568C37.9991 86.2199 37.2254 87 36.2711 87Z" fill="black"/>
</svg>
