<svg width="100" height="100" viewBox="0 0 100 100" fill="none" xmlns="http://www.w3.org/2000/svg">
<path fill-rule="evenodd" clip-rule="evenodd" d="M47.0211 57.1968C46.5641 57.1968 46.1072 56.9684 45.7417 56.6485L40.7153 51.5765C38.9789 49.8858 41.5835 47.3269 43.2742 49.0176L47.0211 52.7645L56.4341 43.3515C58.1705 41.6608 60.7293 44.2197 59.0387 45.9104L48.3462 56.6485C47.9807 56.9684 47.5237 57.1968 47.0211 57.1968ZM49.8541 89C49.717 89 49.5343 88.9543 49.3972 88.9086C33.2671 84.6591 25.3163 74.6063 21.478 66.884C17.3199 58.5677 17 51.2566 17 50.9367V17.9912C17 16.6204 18.5079 15.7065 19.7417 16.4376C30.9367 22.8805 44.645 14.7012 48.7118 11.4112C49.3972 10.8629 50.3568 10.8629 50.9965 11.4112C55.109 14.7012 68.8172 22.8805 80.0123 16.4376C81.2003 15.7065 82.754 16.6204 82.754 17.9912V50.9367C82.754 51.2566 82.3884 58.5677 78.2759 66.884C74.4376 74.6063 66.4868 84.6591 50.3568 88.9086C50.174 88.9543 50.0369 89 49.8541 89ZM20.6555 50.891C20.7012 51.348 21.1125 58.0193 24.8137 65.4218C29.8401 75.3831 38.2478 82.1002 49.8541 85.2531C61.4605 82.1002 69.9139 75.3831 74.9402 65.4218C78.6415 58.0193 79.0527 51.3937 79.0984 50.891V20.9156C67.949 25.3937 55.9772 19.4534 49.8541 15.1125C43.4569 19.6819 31.5764 25.348 20.6555 20.9156V50.891ZM49.8541 68.0721C39.8928 68.0721 31.8049 59.9385 31.8049 49.9772C31.8049 40.0158 39.8928 31.9279 49.8541 31.9279C59.8155 31.9279 67.949 40.0158 67.949 49.9772C67.949 59.9385 59.8155 68.0721 49.8541 68.0721ZM49.8541 35.5835C41.9033 35.5835 35.4605 42.0264 35.4605 49.9772C35.4605 57.9279 41.9033 64.4165 49.8541 64.4165C57.8049 64.4165 64.2935 57.9279 64.2935 49.9772C64.2935 42.0264 57.8049 35.5835 49.8541 35.5835Z" fill="#000002"/>
</svg>
