<svg width="100" height="100" viewBox="0 0 100 100" fill="none" xmlns="http://www.w3.org/2000/svg">
<g clip-path="url(#clip0_13_14)">
<mask id="path-1-inside-1_13_14" fill="white">
<path d="M99.0662 53.7455L91.0613 36.1348C90.3977 34.6796 89.3301 33.4457 87.9855 32.5798C86.6409 31.7138 85.0759 31.2523 83.4766 31.25H68.75V25C68.7482 23.343 68.0891 21.7543 66.9174 20.5826C65.7457 19.4109 64.1571 18.7518 62.5 18.75H10.4166C8.75957 18.7518 7.17091 19.4109 5.9992 20.5826C4.82748 21.7543 4.16842 23.343 4.16661 25V50C4.16395 50.2753 4.21587 50.5484 4.31937 50.8035C4.42287 51.0586 4.5759 51.2906 4.76961 51.4862C4.96333 51.6818 5.19389 51.8371 5.44798 51.943C5.70206 52.049 5.97462 52.1036 6.24991 52.1036C6.52521 52.1036 6.79777 52.049 7.05185 51.943C7.30594 51.8371 7.5365 51.6818 7.73021 51.4862C7.92393 51.2906 8.07696 51.0586 8.18046 50.8035C8.28396 50.5484 8.33588 50.2753 8.33322 50V25C8.33384 24.4476 8.55354 23.9181 8.94411 23.5275C9.33469 23.1369 9.86425 22.9172 10.4166 22.9166H62.5C63.0524 22.9172 63.5819 23.1369 63.9725 23.5275C64.3631 23.9181 64.5828 24.4476 64.5834 25V58.3334C64.5826 58.8857 64.3629 59.4151 63.9723 59.8057C63.5818 60.1962 63.0523 60.4159 62.5 60.4166H37.5C36.951 60.4219 36.4262 60.6438 36.0399 61.0339C35.6535 61.424 35.4368 61.9509 35.4368 62.4999C35.4368 63.049 35.6535 63.5758 36.0399 63.9659C36.4262 64.3561 36.951 64.5779 37.5 64.5832H62.5C64.1571 64.5814 65.7457 63.9223 66.9174 62.7506C68.0891 61.5789 68.7482 59.9903 68.75 58.3332V35.4166H83.4766C84.2764 35.4177 85.059 35.6485 85.7315 36.0814C86.4039 36.5144 86.9379 37.1314 87.2699 37.859L88.0537 39.5832H79.167C78.0622 39.5843 77.003 40.0236 76.2218 40.8048C75.4405 41.586 75.0011 42.6452 75 43.75V52.0834C75.0011 53.1881 75.4404 54.2473 76.2216 55.0284C77.0027 55.8096 78.0619 56.2489 79.1666 56.25H95.5611C95.7403 56.8349 95.832 57.443 95.8332 58.0547V66.6668C95.8324 67.2191 95.6127 67.7485 95.2222 68.139C94.8317 68.5295 94.3023 68.7492 93.75 68.75H87.2899C86.8096 66.3975 85.5313 64.2831 83.6715 62.7646C81.8116 61.2461 79.4843 60.4166 77.0832 60.4166C74.6822 60.4166 72.3548 61.2461 70.495 62.7646C68.6351 64.2831 67.3569 66.3975 66.8766 68.75H33.1233C32.643 66.3975 31.3647 64.2831 29.5049 62.7646C27.645 61.2461 25.3177 60.4166 22.9166 60.4166C20.5156 60.4166 18.1882 61.2461 16.3284 62.7646C14.4685 64.2831 13.1903 66.3975 12.71 68.75H10.4166C9.86428 68.7493 9.33478 68.5295 8.94423 68.139C8.55367 67.7484 8.33394 67.2189 8.33322 66.6666V64.5834C8.88225 64.5781 9.40699 64.3563 9.79334 63.9661C10.1797 63.576 10.3964 63.0492 10.3964 62.5001C10.3964 61.951 10.1797 61.4242 9.79334 61.0341C9.40699 60.6439 8.88225 60.4221 8.33322 60.4168H2.08322C1.53418 60.4221 1.00945 60.6439 0.623088 61.0341C0.23673 61.4242 0.019989 61.951 0.019989 62.5001C0.019989 63.0492 0.23673 63.576 0.623088 63.9661C1.00945 64.3563 1.53418 64.5781 2.08322 64.5834H4.16661V66.6668C4.16842 68.3239 4.82748 69.9125 5.9992 71.0842C7.17091 72.2559 8.75957 72.915 10.4166 72.9168H12.7102C13.1905 75.2693 14.4687 77.3837 16.3285 78.9022C18.1884 80.4207 20.5158 81.2502 22.9168 81.2502C25.3179 81.2502 27.6452 80.4207 29.5051 78.9022C31.3649 77.3837 32.6432 75.2693 33.1234 72.9168H66.8768C67.3571 75.2693 68.6353 77.3837 70.4952 78.9022C72.355 80.4207 74.6824 81.2502 77.0834 81.2502C79.4845 81.2502 81.8118 80.4207 83.6717 78.9022C85.5315 77.3837 86.8097 75.2693 87.29 72.9168H93.75C95.4071 72.915 96.9957 72.2559 98.1674 71.0842C99.3391 69.9125 99.9982 68.3239 100 66.6668V58.0547C100.002 56.5678 99.6839 55.098 99.0662 53.7455ZM22.9166 77.0834C21.6805 77.0834 20.4721 76.7168 19.4443 76.0301C18.4165 75.3433 17.6154 74.3672 17.1424 73.2252C16.6693 72.0831 16.5455 70.8265 16.7867 69.6141C17.0279 68.4017 17.6231 67.2881 18.4972 66.414C19.3713 65.5399 20.4849 64.9446 21.6973 64.7035C22.9097 64.4623 24.1663 64.5861 25.3084 65.0592C26.4504 65.5322 27.4265 66.3333 28.1133 67.3611C28.8001 68.3889 29.1666 69.5973 29.1666 70.8334C29.1648 72.4904 28.5057 74.0791 27.334 75.2508C26.1623 76.4225 24.5737 77.0816 22.9166 77.0834ZM77.0832 77.0834C75.8471 77.0834 74.6387 76.7168 73.6109 76.0301C72.5831 75.3433 71.782 74.3672 71.309 73.2252C70.8359 72.0831 70.7121 70.8265 70.9533 69.6141C71.1945 68.4017 71.7897 67.2881 72.6638 66.414C73.5379 65.5399 74.6515 64.9446 75.8639 64.7035C77.0763 64.4623 78.3329 64.5861 79.475 65.0592C80.617 65.5322 81.5931 66.3333 82.2799 67.3611C82.9667 68.3889 83.3332 69.5973 83.3332 70.8334C83.3314 72.4904 82.6724 74.0791 81.5007 75.2508C80.329 76.4225 78.7404 77.0815 77.0834 77.0834H77.0832ZM79.1666 43.75H89.9467L93.7344 52.0834H79.1666V43.75Z"/>
</mask>
<path d="M99.0662 53.7455L91.0613 36.1348C90.3977 34.6796 89.3301 33.4457 87.9855 32.5798C86.6409 31.7138 85.0759 31.2523 83.4766 31.25H68.75V25C68.7482 23.343 68.0891 21.7543 66.9174 20.5826C65.7457 19.4109 64.1571 18.7518 62.5 18.75H10.4166C8.75957 18.7518 7.17091 19.4109 5.9992 20.5826C4.82748 21.7543 4.16842 23.343 4.16661 25V50C4.16395 50.2753 4.21587 50.5484 4.31937 50.8035C4.42287 51.0586 4.5759 51.2906 4.76961 51.4862C4.96333 51.6818 5.19389 51.8371 5.44798 51.943C5.70206 52.049 5.97462 52.1036 6.24991 52.1036C6.52521 52.1036 6.79777 52.049 7.05185 51.943C7.30594 51.8371 7.5365 51.6818 7.73021 51.4862C7.92393 51.2906 8.07696 51.0586 8.18046 50.8035C8.28396 50.5484 8.33588 50.2753 8.33322 50V25C8.33384 24.4476 8.55354 23.9181 8.94411 23.5275C9.33469 23.1369 9.86425 22.9172 10.4166 22.9166H62.5C63.0524 22.9172 63.5819 23.1369 63.9725 23.5275C64.3631 23.9181 64.5828 24.4476 64.5834 25V58.3334C64.5826 58.8857 64.3629 59.4151 63.9723 59.8057C63.5818 60.1962 63.0523 60.4159 62.5 60.4166H37.5C36.951 60.4219 36.4262 60.6438 36.0399 61.0339C35.6535 61.424 35.4368 61.9509 35.4368 62.4999C35.4368 63.049 35.6535 63.5758 36.0399 63.9659C36.4262 64.3561 36.951 64.5779 37.5 64.5832H62.5C64.1571 64.5814 65.7457 63.9223 66.9174 62.7506C68.0891 61.5789 68.7482 59.9903 68.75 58.3332V35.4166H83.4766C84.2764 35.4177 85.059 35.6485 85.7315 36.0814C86.4039 36.5144 86.9379 37.1314 87.2699 37.859L88.0537 39.5832H79.167C78.0622 39.5843 77.003 40.0236 76.2218 40.8048C75.4405 41.586 75.0011 42.6452 75 43.75V52.0834C75.0011 53.1881 75.4404 54.2473 76.2216 55.0284C77.0027 55.8096 78.0619 56.2489 79.1666 56.25H95.5611C95.7403 56.8349 95.832 57.443 95.8332 58.0547V66.6668C95.8324 67.2191 95.6127 67.7485 95.2222 68.139C94.8317 68.5295 94.3023 68.7492 93.75 68.75H87.2899C86.8096 66.3975 85.5313 64.2831 83.6715 62.7646C81.8116 61.2461 79.4843 60.4166 77.0832 60.4166C74.6822 60.4166 72.3548 61.2461 70.495 62.7646C68.6351 64.2831 67.3569 66.3975 66.8766 68.75H33.1233C32.643 66.3975 31.3647 64.2831 29.5049 62.7646C27.645 61.2461 25.3177 60.4166 22.9166 60.4166C20.5156 60.4166 18.1882 61.2461 16.3284 62.7646C14.4685 64.2831 13.1903 66.3975 12.71 68.75H10.4166C9.86428 68.7493 9.33478 68.5295 8.94423 68.139C8.55367 67.7484 8.33394 67.2189 8.33322 66.6666V64.5834C8.88225 64.5781 9.40699 64.3563 9.79334 63.9661C10.1797 63.576 10.3964 63.0492 10.3964 62.5001C10.3964 61.951 10.1797 61.4242 9.79334 61.0341C9.40699 60.6439 8.88225 60.4221 8.33322 60.4168H2.08322C1.53418 60.4221 1.00945 60.6439 0.623088 61.0341C0.23673 61.4242 0.019989 61.951 0.019989 62.5001C0.019989 63.0492 0.23673 63.576 0.623088 63.9661C1.00945 64.3563 1.53418 64.5781 2.08322 64.5834H4.16661V66.6668C4.16842 68.3239 4.82748 69.9125 5.9992 71.0842C7.17091 72.2559 8.75957 72.915 10.4166 72.9168H12.7102C13.1905 75.2693 14.4687 77.3837 16.3285 78.9022C18.1884 80.4207 20.5158 81.2502 22.9168 81.2502C25.3179 81.2502 27.6452 80.4207 29.5051 78.9022C31.3649 77.3837 32.6432 75.2693 33.1234 72.9168H66.8768C67.3571 75.2693 68.6353 77.3837 70.4952 78.9022C72.355 80.4207 74.6824 81.2502 77.0834 81.2502C79.4845 81.2502 81.8118 80.4207 83.6717 78.9022C85.5315 77.3837 86.8097 75.2693 87.29 72.9168H93.75C95.4071 72.915 96.9957 72.2559 98.1674 71.0842C99.3391 69.9125 99.9982 68.3239 100 66.6668V58.0547C100.002 56.5678 99.6839 55.098 99.0662 53.7455ZM22.9166 77.0834C21.6805 77.0834 20.4721 76.7168 19.4443 76.0301C18.4165 75.3433 17.6154 74.3672 17.1424 73.2252C16.6693 72.0831 16.5455 70.8265 16.7867 69.6141C17.0279 68.4017 17.6231 67.2881 18.4972 66.414C19.3713 65.5399 20.4849 64.9446 21.6973 64.7035C22.9097 64.4623 24.1663 64.5861 25.3084 65.0592C26.4504 65.5322 27.4265 66.3333 28.1133 67.3611C28.8001 68.3889 29.1666 69.5973 29.1666 70.8334C29.1648 72.4904 28.5057 74.0791 27.334 75.2508C26.1623 76.4225 24.5737 77.0816 22.9166 77.0834ZM77.0832 77.0834C75.8471 77.0834 74.6387 76.7168 73.6109 76.0301C72.5831 75.3433 71.782 74.3672 71.309 73.2252C70.8359 72.0831 70.7121 70.8265 70.9533 69.6141C71.1945 68.4017 71.7897 67.2881 72.6638 66.414C73.5379 65.5399 74.6515 64.9446 75.8639 64.7035C77.0763 64.4623 78.3329 64.5861 79.475 65.0592C80.617 65.5322 81.5931 66.3333 82.2799 67.3611C82.9667 68.3889 83.3332 69.5973 83.3332 70.8334C83.3314 72.4904 82.6724 74.0791 81.5007 75.2508C80.329 76.4225 78.7404 77.0815 77.0834 77.0834H77.0832ZM79.1666 43.75H89.9467L93.7344 52.0834H79.1666V43.75Z" fill="black" stroke="black" stroke-width="2" mask="url(#path-1-inside-1_13_14)"/>
<path d="M2.0834 58.3334H12.5C13.049 58.3281 13.5738 58.1063 13.9601 57.7161C14.3465 57.326 14.5632 56.7992 14.5632 56.2501C14.5632 55.701 14.3465 55.1742 13.9601 54.7841C13.5738 54.394 13.049 54.1721 12.5 54.1668H2.0834C1.53437 54.1721 1.00963 54.394 0.623271 54.7841C0.236913 55.1742 0.0201721 55.701 0.0201721 56.2501C0.0201721 56.7992 0.236913 57.326 0.623271 57.7161C1.00963 58.1063 1.53437 58.3281 2.0834 58.3334Z" fill="black"/>
</g>
<defs>
<clipPath id="clip0_13_14">
<rect width="100" height="100" fill="white"/>
</clipPath>
</defs>
</svg>
