<svg width="398" height="354" viewBox="0 0 398 354" fill="none" xmlns="http://www.w3.org/2000/svg">
<path d="M397.9 324.49H364.78V324.74H397.9V324.49Z" fill="#EBEBEB"/>
<path d="M279.22 327.21H270.53V327.46H279.22V327.21Z" fill="#EBEBEB"/>
<path d="M363.78 315.21H344.59V315.46H363.78V315.21Z" fill="#EBEBEB"/>
<path d="M43.65 316.89H0.459961V317.14H43.65V316.89Z" fill="#EBEBEB"/>
<path d="M58.8901 316.89H52.5601V317.14H58.8901V316.89Z" fill="#EBEBEB"/>
<path d="M173.15 321.11H79.47V321.36H173.15V321.11Z" fill="#EBEBEB"/>
<path d="M392.2 0.649994H227.75V146.57H392.2V0.649994Z" fill="#E6E6E6"/>
<path d="M387.86 4.64999H231.86V142.65H387.86V4.64999Z" fill="#F0F0F0"/>
<path d="M268.48 4.64999L231.86 142.35V77.65L251.19 4.64999H268.48Z" fill="white"/>
<path d="M281.44 4.64999L244.51 142.65H238.62L275.55 4.64999H281.44Z" fill="white"/>
<path d="M387.86 91.73V113.78L380.39 142.65H374.5L387.86 91.73Z" fill="white"/>
<path d="M286.28 2.16998H283.65V145.73H286.28V2.16998Z" fill="#E6E6E6"/>
<path d="M337.2 2.16998H334.57V145.73H337.2V2.16998Z" fill="#E6E6E6"/>
<path d="M91.13 227.05H0.459961V308.36H91.13V227.05Z" fill="#F5F5F5"/>
<path d="M32.02 227.05H0.459961V308.36H32.02V227.05Z" fill="#EBEBEB"/>
<path d="M109.17 147.41H18.5V228.72H109.17V147.41Z" fill="#EBEBEB"/>
<path d="M50.06 147.41H18.5V228.72H50.06V147.41Z" fill="#E0E0E0"/>
<path d="M91.13 66.34H0.459961V147.65H91.13V66.34Z" fill="#F5F5F5"/>
<path d="M32.02 66.34H0.459961V147.65H32.02V66.34Z" fill="#EBEBEB"/>
<path d="M189.8 227.12H99.1299V308.43H189.8V227.12Z" fill="#EBEBEB"/>
<path d="M130.69 227.12H99.1299V308.43H130.69V227.12Z" fill="#E0E0E0"/>
<path d="M199.84 177.87H109.17V228.8H199.84V177.87Z" fill="#F5F5F5"/>
<path d="M140.73 177.87H109.17V228.8H140.73V177.87Z" fill="#E6E6E6"/>
<path d="M160.71 97.41H102.13V178.72H160.71V97.41Z" fill="#EBEBEB"/>
<path d="M122.52 97.41H102.13V178.72H122.52V97.41Z" fill="#E0E0E0"/>
<path d="M294.51 308.51H385.18V227.2H294.51V308.51Z" fill="#F5F5F5"/>
<path d="M353.62 308.51H385.18V227.2H353.62V308.51Z" fill="#E6E6E6"/>
<path d="M276.46 228.87H367.13V162.68H276.46V228.87Z" fill="#EBEBEB"/>
<path d="M335.58 228.87H367.14V162.68H335.58V228.87Z" fill="#E0E0E0"/>
<path d="M297.74 162.68H385.18V130.28H297.74V162.68Z" fill="#F5F5F5"/>
<path d="M354.76 162.68H385.19V130.28H354.76V162.68Z" fill="#E6E6E6"/>
<path d="M198 353.56C305.083 353.56 391.89 348.492 391.89 342.24C391.89 335.988 305.083 330.92 198 330.92C90.9176 330.92 4.11011 335.988 4.11011 342.24C4.11011 348.492 90.9176 353.56 198 353.56Z" fill="#F5F5F5"/>
<path d="M305.86 35.95H278.03C275.528 35.95 273.5 37.9782 273.5 40.48V65.72C273.5 68.2219 275.528 70.25 278.03 70.25H305.86C308.362 70.25 310.39 68.2219 310.39 65.72V40.48C310.39 37.9782 308.362 35.95 305.86 35.95Z" fill="#6AAA7E"/>
<path d="M288.34 65.89C288.34 65.89 290.67 77.16 306.55 83.41C306.55 83.41 296.84 77.2 297.44 65.89H288.34Z" fill="#6AAA7E"/>
<path d="M283.96 52.13L289.23 59.45L299.93 46.76" stroke="white" stroke-width="3" stroke-linecap="round" stroke-linejoin="round"/>
<path d="M340.53 75.42C345.42 78.93 349.84 84.93 346.53 101.73C343.22 118.53 342.38 122.53 342.38 122.53L310.38 118.93C310.38 118.93 308.88 104.06 311.38 90.07C314.76 72 326.21 65.13 340.53 75.42Z" fill="#263238"/>
<path d="M308.5 168.25C308.5 168.25 297.66 226 294.77 249.73C290.99 280.67 275.54 325.93 275.54 325.93L281.72 327.53C281.72 327.53 303.5 289.06 307.72 254.46C325.02 219.09 326.42 175.53 326.42 175.53L308.5 168.25Z" fill="#EEC1BB"/>
<path d="M264 339.93C264.998 339.471 266.073 339.199 267.17 339.13C267.17 339.13 270.97 336.89 274.73 328.21H278.97C279.685 328.22 280.379 328.449 280.96 328.865C281.542 329.282 281.981 329.866 282.22 330.54C282.289 330.729 282.33 330.928 282.34 331.13C282.293 332.136 282.183 333.138 282.01 334.13C281.39 337.51 280.565 340.85 279.54 344.13L278.82 343.94L280.12 337.63C280.56 335.48 278.3 337.55 277.26 339.72C276.22 341.89 274.65 344 270 343C264.52 341.7 262.33 340.91 264 339.93Z" fill="#263238"/>
<path d="M282.38 330.62C283.18 328.57 284.2 324.9 284.2 324.9L275.13 323.64C275.13 323.64 275.13 328.1 273.45 331.02C278.19 331 282.38 330.62 282.38 330.62Z" fill="#263238"/>
<path d="M319.75 167.33C319.75 167.33 321.1 226.08 323.17 249.88C325.88 280.94 320.12 328.42 320.12 328.42L326.5 328.7C326.5 328.7 339.85 286.56 336.85 251.82C346.46 213.64 338.85 170.74 338.85 170.74L319.75 167.33Z" fill="#EEC1BB"/>
<path d="M310.2 341.87C311.144 341.302 312.185 340.912 313.27 340.72C313.27 340.72 316.8 338.09 319.61 329.05L323.81 328.57C324.527 328.503 325.247 328.659 325.872 329.017C326.497 329.375 326.996 329.917 327.3 330.57C327.39 330.749 327.451 330.942 327.48 331.14C327.545 332.162 327.545 333.188 327.48 334.21C327.223 337.622 326.759 341.015 326.09 344.37L325.36 344.27L325.97 337.85C326.17 335.67 324.16 337.97 323.35 340.24C322.54 342.51 321.18 344.84 316.42 344.24C310.88 343.57 308.61 343 310.2 341.87Z" fill="#263238"/>
<path d="M327.43 330.62C328 328.5 328.62 324.74 328.62 324.74L319.47 324.47C319.47 324.47 319.95 328.9 318.6 331.99C323.3 331.44 327.43 330.62 327.43 330.62Z" fill="#263238"/>
<path d="M306.19 158.61L294.3 240.83C294.3 240.83 333.02 246.83 348.52 243.32C348.52 243.32 352.33 195.85 336.15 161.32L306.19 158.61Z" fill="#263238"/>
<path d="M270.4 129.54L260.05 119.32C260.05 119.32 259.7 116.58 258.69 115.82C257.68 115.06 250.6 112.48 249.69 113.05C248.78 113.62 247.61 119.36 248.83 120.41C250.05 121.46 256.5 122.8 257.16 122.69L268.39 136L270.4 129.54Z" fill="#EEC1BB"/>
<path d="M307.44 110.91C302.98 113.28 287.14 135.42 284.81 136.51C282.48 137.6 264.65 123.15 264.65 123.15L261.65 128.28C261.65 128.28 276.27 149 284.54 148C292.81 147 308.64 129.5 308.64 129.5L307.44 110.91Z" fill="#6AAA7E"/>
<path opacity="0.1" d="M307.44 110.91C302.98 113.28 287.14 135.42 284.81 136.51C282.48 137.6 264.65 123.15 264.65 123.15L261.65 128.28C261.65 128.28 276.27 149 284.54 148C292.81 147 308.64 129.5 308.64 129.5L307.44 110.91Z" fill="white"/>
<path d="M265.63 123.7L264.39 122.53L261.14 128.03L262.31 130.28L265.63 123.7Z" fill="#6AAA7E"/>
<path opacity="0.2" d="M302.28 135.91C305.98 132.38 308.64 129.45 308.64 129.45L308.36 125.05L307 120.78C305.082 122.755 303.655 125.153 302.835 127.782C302.015 130.41 301.825 133.195 302.28 135.91Z" fill="black"/>
<path d="M305.94 157.77C304.69 135.77 305.25 123.65 305.82 117.6C306.45 111.15 307.44 110.91 307.44 110.91C307.44 110.91 314.44 110.23 320.51 110.28C325.206 110.439 329.885 110.934 334.51 111.76C338.913 112.491 343.257 113.537 347.51 114.89C346.8 116.89 346.16 118.89 345.56 120.65C344.77 123.04 344.06 125.25 343.41 127.32C342.21 131.18 341.27 134.52 340.53 137.51C338.618 145.039 337.502 152.748 337.2 160.51C337.2 160.51 344.89 180.61 346.39 195.36L320.89 198.11L317.39 183.36L313.89 198.61L299.64 193.61L305.94 157.77Z" fill="#6AAA7E"/>
<path opacity="0.1" d="M305.94 157.77C304.69 135.77 305.25 123.65 305.82 117.6C306.45 111.15 307.44 110.91 307.44 110.91C307.44 110.91 314.44 110.23 320.51 110.28C325.206 110.439 329.885 110.934 334.51 111.76C338.913 112.491 343.257 113.537 347.51 114.89C346.8 116.89 346.16 118.89 345.56 120.65C344.77 123.04 344.06 125.25 343.41 127.32C342.21 131.18 341.27 134.52 340.53 137.51C338.618 145.039 337.502 152.748 337.2 160.51C337.2 160.51 344.89 180.61 346.39 195.36L320.89 198.11L317.39 183.36L313.89 198.61L299.64 193.61L305.94 157.77Z" fill="white"/>
<path opacity="0.2" d="M339.29 142.9C339.63 141.22 340.03 139.43 340.52 137.51C340.83 136.29 341.17 135.01 341.52 133.65C340.52 130.24 339.52 132.91 339.52 132.91C338.9 136.205 338.822 139.58 339.29 142.9Z" fill="black"/>
<path d="M320.86 111.62C321.168 111.464 321.485 111.327 321.81 111.21C322.53 110.64 323.41 109.27 323.37 105.94C323.338 104.62 323.214 103.303 323 102L332.27 100.27C332.27 100.27 329.11 106.51 331.74 111.15C332.65 111.55 333.19 112.15 333.09 112.88C332.4 118.23 320.88 123.41 320.88 123.41C320.88 123.41 315.27 114.69 320.86 111.62Z" fill="#EEC1BB"/>
<path opacity="0.2" d="M323 102C323.209 103.294 323.329 104.6 323.36 105.91C329.62 105.91 332.27 100.27 332.27 100.27L323 102Z" fill="black"/>
<path d="M328.13 76.11C320.07 75.67 317.24 79.84 316.2 88.11C314.89 98.45 316.79 105.95 326.99 104.29C340.84 102 341.52 76.84 328.13 76.11Z" fill="#EEC1BB"/>
<path d="M321.43 88C320.719 89.1679 319.87 90.2456 318.9 91.21C319.121 91.5522 319.432 91.8266 319.799 92.0031C320.166 92.1795 320.575 92.2512 320.98 92.21L321.43 88Z" fill="#D4827D"/>
<path d="M326.4 87.56C326.4 88.22 326.66 88.79 327.1 88.82C327.54 88.85 327.94 88.35 328 87.69C328.06 87.03 327.73 86.46 327.29 86.43C326.85 86.4 326.45 86.9 326.4 87.56Z" fill="#263238"/>
<path d="M327.47 86.47L326.08 85.8C326.08 85.8 326.7 87.06 327.47 86.47Z" fill="#263238"/>
<path d="M318.19 86.78C318.14 87.44 318.45 88 318.89 88.04C319.33 88.08 319.74 87.57 319.79 86.9C319.84 86.23 319.52 85.68 319.08 85.64C318.64 85.6 318.24 86.12 318.19 86.78Z" fill="#263238"/>
<path d="M319.26 85.69L317.87 85.01C317.87 85.01 318.49 86.28 319.26 85.69Z" fill="#263238"/>
<path d="M326.79 82C327.43 81.9569 328.071 82.0616 328.664 82.3061C329.258 82.5506 329.786 82.9283 330.21 83.41" stroke="#263238" stroke-width="0.686238" stroke-linecap="round" stroke-linejoin="round"/>
<path d="M321 81.34C320.457 81.1689 319.883 81.1231 319.32 81.2063C318.757 81.2894 318.22 81.4993 317.75 81.82" stroke="#263238" stroke-width="0.686238" stroke-linecap="round" stroke-linejoin="round"/>
<path d="M336.2 90.18C336.2 90.18 332.79 83.35 333.64 78.27C333.64 78.27 318.03 70.87 316.35 87.03C316.35 87.03 315.58 72.55 329.45 73.03C343.32 73.51 342.15 93.74 334.67 99.39C334.67 99.35 338.3 94.45 336.2 90.18Z" fill="#263238"/>
<path d="M334.79 91.81C334.924 90.8823 335.42 90.0454 336.17 89.483C336.92 88.9206 337.862 88.6786 338.79 88.81C341.27 89.22 342.18 94.42 335.9 95.31C335 95.41 334.53 94.51 334.79 91.81Z" fill="#EEC1BB"/>
<path d="M327.27 94.07C326.66 94.672 325.937 95.1471 325.142 95.4681C324.347 95.7891 323.497 95.9495 322.64 95.94" stroke="#263238" stroke-width="0.686238" stroke-linecap="round" stroke-linejoin="round"/>
<path d="M333.64 78.27C333.64 78.27 316.22 73.74 314.76 90.07" stroke="#263238" stroke-width="0.686238" stroke-linecap="round" stroke-linejoin="round"/>
<path d="M318.1 115.59C318.1 115.59 316.77 128.83 318.95 140.88C318.95 140.88 324.09 122.26 331.31 115.93L323.01 117.12L318.1 115.59Z" fill="#6AAA7E"/>
<path opacity="0.5" d="M318.1 115.59C318.1 115.59 316.77 128.83 318.95 140.88C318.95 140.88 324.09 122.26 331.31 115.93L323.01 117.12L318.1 115.59Z" fill="white"/>
<path d="M331.43 109.7L323 115.93V109.31C323 109.31 316.19 111.78 316.67 119.31L322.26 116.74V119.31L323.57 116.83L327.99 121.88C327.99 121.88 333.4 115.57 333.99 113.67C334.58 111.77 331.43 109.7 331.43 109.7Z" fill="#6AAA7E"/>
<path opacity="0.7" d="M331.43 109.7L323 115.93V109.31C323 109.31 316.19 111.78 316.67 119.31L322.26 116.74V119.31L323.57 116.83L327.99 121.88C327.99 121.88 333.4 115.57 333.99 113.67C334.58 111.77 331.43 109.7 331.43 109.7Z" fill="white"/>
<path d="M340.23 168.12L332.49 131.19C332.41 130.804 332.199 130.456 331.893 130.207C331.587 129.958 331.205 129.821 330.81 129.82H307C306.825 129.82 306.652 129.859 306.493 129.933C306.334 130.007 306.194 130.115 306.081 130.25C305.969 130.384 305.887 130.542 305.842 130.711C305.797 130.88 305.789 131.057 305.82 131.23L312.27 167.39C312.337 167.78 312.537 168.134 312.836 168.393C313.135 168.652 313.515 168.8 313.91 168.81L339.08 169.56C339.256 169.556 339.429 169.514 339.586 169.436C339.744 169.358 339.882 169.246 339.992 169.109C340.102 168.972 340.18 168.812 340.221 168.641C340.262 168.47 340.265 168.292 340.23 168.12Z" fill="#263238"/>
<path opacity="0.1" d="M340.23 168.12L332.49 131.19C332.41 130.804 332.199 130.456 331.893 130.207C331.587 129.958 331.205 129.821 330.81 129.82H307C306.825 129.82 306.652 129.859 306.493 129.933C306.334 130.007 306.194 130.115 306.081 130.25C305.969 130.384 305.887 130.542 305.842 130.711C305.797 130.88 305.789 131.057 305.82 131.23L312.27 167.39C312.337 167.78 312.537 168.134 312.836 168.393C313.135 168.652 313.515 168.8 313.91 168.81L339.08 169.56C339.256 169.556 339.429 169.514 339.586 169.436C339.744 169.358 339.882 169.246 339.992 169.109C340.102 168.972 340.18 168.812 340.221 168.641C340.262 168.47 340.265 168.292 340.23 168.12Z" fill="white"/>
<path d="M350.52 156.16L338.21 148.4C338.21 148.4 337.27 145.81 336.13 145.28C334.99 144.75 327.51 143.76 326.78 144.51C326.05 145.26 326.11 151.11 327.53 151.88C328.95 152.65 335.53 152.56 336.15 152.31L349.94 162.87L350.52 156.16Z" fill="#EEC1BB"/>
<path d="M347.51 114.89C347.51 114.89 339.51 126.57 340.64 136.57L351.31 154.23L344.14 150.57L340.89 156.69C340.89 156.69 349.14 169.4 359.64 166.4C370.14 163.4 347.51 114.89 347.51 114.89Z" fill="#6AAA7E"/>
<path opacity="0.1" d="M347.51 114.89C347.51 114.89 339.51 126.57 340.64 136.57L351.31 154.23L344.14 150.57L340.89 156.69C340.89 156.69 349.14 169.4 359.64 166.4C370.14 163.4 347.51 114.89 347.51 114.89Z" fill="white"/>
<path d="M344.89 150.23L340.81 157.82L339.89 155.65L343.14 149.48L344.89 150.23Z" fill="#6AAA7E"/>
<path d="M330 129.82C329.06 129.82 329.06 154.42 329.06 154.42L307.56 153.8C307.56 153.8 305.14 133 307.56 129.8L330 129.82Z" fill="white"/>
<path opacity="0.1" d="M330 129.82C329.06 129.82 329.06 154.42 329.06 154.42L307.56 153.8C307.56 153.8 305.14 133 307.56 129.8L330 129.82Z" fill="black"/>
<path d="M241.2 110.33L261.53 118.88C261.64 118.928 261.739 118.997 261.822 119.083C261.905 119.169 261.97 119.271 262.014 119.382C262.058 119.494 262.079 119.613 262.077 119.733C262.074 119.852 262.048 119.97 262 120.08C261.906 120.296 261.73 120.466 261.51 120.552C261.291 120.638 261.046 120.634 260.83 120.54L240.37 111.87L240.18 111.77L237.8 110L240.93 110.27C241.023 110.276 241.114 110.296 241.2 110.33Z" fill="#263238"/>
<path d="M173.75 152.47L154 154.23L146.08 149.76C146.08 149.76 120.68 135.61 114.08 131.14C112.08 129.77 110.21 126.79 108.6 123.29C107.249 120.289 106.087 117.206 105.12 114.06C104.67 112.65 104.27 111.3 103.93 110.06C103.17 107.39 102.7 105.39 102.57 104.85C102.576 104.807 102.576 104.763 102.57 104.72H102.62L108.88 102.72L114.11 101.06C114.11 101.06 114.35 102.3 114.76 104.19L115.12 105.86C115.23 106.34 115.34 106.86 115.46 107.38C116.78 113.2 118.81 121.14 120.28 122.44C122.65 124.53 152.45 144.84 153.51 145.37C154.57 145.9 164.06 145.37 164.06 145.37L173.75 152.47Z" fill="#E4897B"/>
<path d="M102.41 76.68C111.51 76.54 117.3 104.74 117.3 104.74L105.3 110.74C101.891 104.838 100.114 98.1355 100.15 91.32C100.43 80.5 102.41 76.68 102.41 76.68Z" fill="#6AAA7E"/>
<path opacity="0.5" d="M102.41 76.68C111.51 76.54 117.3 104.74 117.3 104.74L105.3 110.74C101.891 104.838 100.114 98.1355 100.15 91.32C100.43 80.5 102.41 76.68 102.41 76.68Z" fill="white"/>
<path d="M118.63 105.29L115.39 107.39L111.16 110.13L105.08 114.06L103.99 114.77L102.67 110.76L103.89 110.1L104.69 109.66L110.25 106.63L114.69 104.2L116.91 102.99L117.3 102.78L118.63 105.29Z" fill="#6AAA7E"/>
<path opacity="0.2" d="M111.7 114.77C111.719 117.896 110.603 120.923 108.56 123.29C107.209 120.289 106.047 117.206 105.08 114.06L103.99 114.77L102.67 110.77L103.89 110.11C103.13 107.44 102.66 105.44 102.53 104.9V104.74L103.97 93.74C105.86 96.5797 107.473 99.5934 108.79 102.74C109.31 103.97 109.79 105.28 110.23 106.64C110.383 107.107 110.523 107.587 110.65 108.08C110.84 108.76 111 109.45 111.14 110.14C111.465 111.663 111.652 113.213 111.7 114.77Z" fill="black"/>
<path d="M101.05 335.36L109.42 336.25L110.99 318.2L102.62 317.31L101.05 335.36Z" fill="#E4897B"/>
<path d="M59.3 334.75H67.4L68.07 315.97H59.96L59.3 334.75Z" fill="#E4897B"/>
<path d="M68.5299 333.81H58.6799C58.5189 333.813 58.3633 333.869 58.2382 333.971C58.1131 334.072 58.0257 334.213 57.9899 334.37L56.3899 341.59C56.3562 341.744 56.3533 341.903 56.3814 342.057C56.4095 342.212 56.468 342.36 56.5536 342.492C56.6392 342.624 56.7501 342.738 56.8799 342.827C57.0097 342.916 57.1559 342.978 57.3099 343.01C57.396 343.025 57.4839 343.025 57.5699 343.01C60.7599 343.01 63.0799 342.77 67.0799 342.77C69.5499 342.77 76.9899 343.02 80.3899 343.02C83.7899 343.02 84.2399 339.66 82.8399 339.35C76.5899 337.99 71.8399 336.1 69.8399 334.35C69.4838 334.016 69.0179 333.824 68.5299 333.81Z" fill="#263238"/>
<path d="M69.09 334.94C69.0507 334.93 69.0154 334.909 68.9886 334.878C68.9618 334.848 68.9448 334.81 68.94 334.77C68.9354 334.734 68.9414 334.698 68.9575 334.666C68.9735 334.634 68.9988 334.608 69.03 334.59C69.32 334.4 71.94 332.79 72.84 333.26C72.9422 333.304 73.0285 333.379 73.0875 333.474C73.1464 333.568 73.1752 333.679 73.17 333.79C73.19 333.977 73.164 334.165 73.0943 334.34C73.0246 334.514 72.9132 334.669 72.77 334.79C72.3138 335.105 71.7628 335.254 71.21 335.21C70.4954 335.201 69.7841 335.11 69.09 334.94ZM69.64 334.67C70.587 334.991 71.6213 334.938 72.53 334.52C72.6248 334.434 72.6978 334.326 72.743 334.206C72.7882 334.086 72.8043 333.957 72.79 333.83C72.79 333.68 72.72 333.61 72.66 333.61C72.5872 333.569 72.5032 333.551 72.42 333.56C71.4304 333.747 70.4864 334.124 69.64 334.67Z" fill="#6AAA7E"/>
<path d="M69 335C68.9712 334.98 68.9478 334.953 68.9321 334.921C68.9164 334.89 68.9088 334.855 68.91 334.82C68.91 334.71 69.12 332.38 70.06 331.62C70.1685 331.522 70.2973 331.448 70.4372 331.405C70.5772 331.362 70.725 331.35 70.87 331.37C71.0152 331.369 71.1561 331.418 71.2691 331.51C71.3821 331.601 71.4601 331.728 71.49 331.87C71.65 332.73 70.03 334.51 69.2 334.97H69.11C69.0771 334.99 69.0388 335.001 69 335ZM70.3 331.84C69.7185 332.567 69.3699 333.452 69.3 334.38C70.14 333.75 71.17 332.38 71.07 331.87C71.07 331.82 71.07 331.68 70.79 331.68H70.7C70.5658 331.69 70.4374 331.739 70.33 331.82L70.3 331.84Z" fill="#6AAA7E"/>
<path d="M110.3 333.56H100.45C100.29 333.56 100.134 333.615 100.009 333.715C99.8839 333.815 99.7961 333.954 99.76 334.11L98.16 341.33C98.0947 341.64 98.1548 341.964 98.3272 342.23C98.4996 342.496 98.7702 342.683 99.08 342.75H99.35C102.53 342.69 104.85 342.5 108.86 342.5C111.32 342.5 118.76 342.76 122.16 342.76C125.56 342.76 126.01 339.39 124.62 339.08C118.37 337.72 113.62 335.84 111.62 334.08C111.258 333.751 110.789 333.566 110.3 333.56Z" fill="#263238"/>
<path d="M110.86 334.68C110.821 334.67 110.785 334.649 110.759 334.618C110.732 334.588 110.715 334.55 110.71 334.51C110.705 334.473 110.712 334.436 110.73 334.403C110.748 334.371 110.776 334.345 110.81 334.33C111.1 334.14 113.72 332.53 114.61 333C114.711 333.047 114.795 333.122 114.854 333.216C114.913 333.31 114.943 333.419 114.94 333.53C114.961 333.717 114.935 333.906 114.866 334.08C114.796 334.255 114.684 334.409 114.54 334.53C114.094 334.854 113.551 335.02 113 335C112.277 334.975 111.559 334.868 110.86 334.68ZM111.41 334.41C112.357 334.726 113.388 334.676 114.3 334.27C114.396 334.184 114.469 334.077 114.514 333.957C114.559 333.837 114.575 333.707 114.56 333.58C114.56 333.42 114.49 333.35 114.44 333.35C114.364 333.308 114.276 333.291 114.19 333.3C113.202 333.492 112.259 333.868 111.41 334.41Z" fill="#6AAA7E"/>
<path d="M110.81 334.72C110.781 334.702 110.756 334.677 110.739 334.647C110.721 334.618 110.711 334.584 110.71 334.55C110.71 334.43 110.92 332.1 111.86 331.34C111.968 331.242 112.097 331.168 112.237 331.125C112.377 331.082 112.525 331.07 112.67 331.09C112.816 331.09 112.959 331.14 113.072 331.233C113.185 331.327 113.262 331.456 113.29 331.6C113.46 332.45 111.84 334.24 111 334.69H110.91C110.88 334.709 110.845 334.72 110.81 334.72ZM112.11 331.56C111.524 332.284 111.175 333.171 111.11 334.1C111.94 333.47 112.97 332.1 112.87 331.6C112.87 331.54 112.87 331.4 112.59 331.4H112.5C112.356 331.41 112.219 331.466 112.11 331.56Z" fill="#6AAA7E"/>
<path opacity="0.2" d="M102.62 317.31L110.99 318.2L110.17 327.51L101.8 326.62L102.62 317.31Z" fill="black"/>
<path opacity="0.2" d="M59.9601 315.98H68.0701L67.7201 325.67H59.6101L59.9601 315.98Z" fill="black"/>
<path d="M63.3001 151.22H106.3C110.39 173.57 123.2 252.64 114.01 323.09L99.4401 321.28C99.4401 321.28 100.79 227.75 87.9301 193.18C86.4501 211.68 84.6901 231.37 83.1701 241.85C79.4601 267.63 71.4501 324 71.4501 324H56.6201C56.6201 324 59.6201 270.06 61.0501 244.71C62.5801 217.19 63.2501 156.87 63.3001 151.22Z" fill="#6AAA7E"/>
<path opacity="0.2" d="M88 193.18C90.1198 199.242 91.7288 205.47 92.81 211.8C94.01 195.33 89.2 177.87 89.2 177.87L88 193.18Z" fill="black"/>
<path d="M115.72 326.48L97.6899 323.8L98.2399 318.81L116.99 321.27L115.72 326.48Z" fill="#6AAA7E"/>
<path opacity="0.6" d="M115.72 326.48L97.6899 323.8L98.2399 318.81L116.99 321.27L115.72 326.48Z" fill="white"/>
<path d="M73.23 324.11H55.74V318.88L73.89 318.54L73.23 324.11Z" fill="#6AAA7E"/>
<path opacity="0.6" d="M73.23 324.11H55.74V318.88L73.89 318.54L73.23 324.11Z" fill="white"/>
<path d="M63.2202 158.7L63.1802 152.47L107.04 149.76L107.35 155.8L63.2202 158.7Z" fill="#263238"/>
<path d="M74.3201 150.89H72.3401V160.02H74.3201V150.89Z" fill="#6AAA7E"/>
<path d="M104.63 147.858L102.656 148.002L103.319 157.107L105.294 156.963L104.63 147.858Z" fill="#6AAA7E"/>
<path d="M107 149.76L63.1801 153C63.1801 149.16 63.0801 144.88 62.7901 140.36C62.2501 132.01 61.2201 122.87 60.0701 114.3C57.6301 96.09 54.6401 80.46 54.6401 80.46C75.0401 75.31 102.41 76.65 102.41 76.65C109.52 103.29 107 149.76 107 149.76Z" fill="#6AAA7E"/>
<path opacity="0.6" d="M107 149.76L63.1801 153C63.1801 149.16 63.0801 144.88 62.7901 140.36C62.2501 132.01 61.2201 122.87 60.0701 114.3C57.6301 96.09 54.6401 80.46 54.6401 80.46C75.0401 75.31 102.41 76.65 102.41 76.65C109.52 103.29 107 149.76 107 149.76Z" fill="white"/>
<path d="M70.21 77.73C74.21 81.32 83.84 80 83.84 80C83.84 80 89.84 78.34 88.61 76.45C85.05 75.87 83.33 74.21 82.61 72.08C82.2147 70.7653 82.0922 69.3837 82.25 68.02C82.305 67.2581 82.4052 66.5001 82.55 65.75L70.55 56.89C72.16 62.74 74.08 73.49 70.21 77.73Z" fill="#E4897B"/>
<path opacity="0.2" d="M73.3601 62.52C73.8301 69.7 79.7301 71.68 82.6201 72.08C82.2249 70.7653 82.1024 69.3837 82.2601 68.02L73.3601 62.52Z" fill="black"/>
<path d="M94.0001 39.83C96.9101 42.59 95.7001 51 89.7701 55.3C83.8401 59.6 83.8401 38.8 83.8401 38.8C83.8401 38.8 92.1501 38.07 94.0001 39.83Z" fill="#263238"/>
<path d="M72.5499 64.18C73.7933 66.0206 75.6066 67.4021 77.7114 68.1121C79.8161 68.8221 82.0957 68.8214 84.1999 68.11C86.9364 67.2432 89.2395 65.3657 90.6399 62.86C90.8378 62.5126 91.018 62.1555 91.1799 61.79C94.0999 55 94.9999 43 87.8099 38.54C85.3413 36.9929 82.3597 36.4883 79.5194 37.137C76.6791 37.7856 74.2122 39.5346 72.6599 42C71.7418 43.4634 71.1769 45.1205 71.0099 46.84C70.1299 54.8 69.2299 59.46 72.5499 64.18Z" fill="#E4897B"/>
<path d="M82.6501 51.09C82.5001 51.72 82.7901 52.31 83.2201 52.38C83.6501 52.45 84.0701 51.98 84.2201 51.38C84.3701 50.78 84.0701 50.16 83.6601 50.09C83.2501 50.02 82.7701 50.44 82.6501 51.09Z" fill="#263238"/>
<path d="M89.9401 52.33C89.7901 52.96 90.0901 53.56 90.5001 53.63C90.9101 53.7 91.3601 53.23 91.5001 52.63C91.6401 52.03 91.3501 51.4 90.9301 51.33C90.5101 51.26 90.0501 51.72 89.9401 52.33Z" fill="#263238"/>
<path d="M87.57 52.25C88.0032 54.3391 88.7234 56.3583 89.71 58.25C89.213 58.4926 88.6686 58.6228 88.1156 58.6314C87.5626 58.64 87.0144 58.5269 86.51 58.3L87.57 52.25Z" fill="#DE5753"/>
<path d="M80.7901 48.34C80.8583 48.3599 80.9303 48.3631 80.9999 48.3491C81.0696 48.3352 81.1348 48.3046 81.1901 48.26C81.5316 47.9193 81.9486 47.6639 82.4073 47.5145C82.866 47.3651 83.3534 47.3258 83.8301 47.4C83.8787 47.4119 83.9292 47.4141 83.9786 47.4065C84.0281 47.3989 84.0755 47.3815 84.1183 47.3555C84.161 47.3295 84.1982 47.2953 84.2277 47.2549C84.2571 47.2145 84.2784 47.1686 84.2901 47.12C84.3115 47.022 84.2944 46.9196 84.2422 46.8339C84.1901 46.7482 84.1069 46.686 84.0101 46.66C83.4124 46.5497 82.7971 46.5828 82.2147 46.7566C81.6323 46.9305 81.0995 47.2401 80.6601 47.66C80.5904 47.7326 80.5515 47.8293 80.5515 47.93C80.5515 48.0306 80.5904 48.1274 80.6601 48.2C80.6938 48.2547 80.738 48.3023 80.7901 48.34Z" fill="#263238"/>
<path d="M84.89 61.5C83.9439 61.4847 83.0157 61.2401 82.1849 60.7873C81.3541 60.3344 80.6456 59.6868 80.12 58.9C80.1057 58.8772 80.0961 58.8517 80.0918 58.825C80.0876 58.7984 80.0888 58.7712 80.0953 58.7451C80.1019 58.7189 80.1136 58.6944 80.1299 58.6729C80.1462 58.6514 80.1666 58.6334 80.19 58.62C80.2341 58.5933 80.2868 58.5846 80.3371 58.5958C80.3874 58.607 80.4314 58.6371 80.46 58.68C80.9634 59.3961 81.6268 59.985 82.3975 60.3998C83.1682 60.8147 84.0251 61.0442 84.9 61.07C84.9514 61.0699 85.0008 61.0896 85.038 61.125C85.0752 61.1604 85.0975 61.2087 85.1 61.26C85.0976 61.3096 85.0768 61.3565 85.0417 61.3917C85.0066 61.4268 84.9596 61.4476 84.91 61.45L84.89 61.5Z" fill="#263238"/>
<path d="M93.5 50.35C93.5666 50.3894 93.6426 50.4101 93.72 50.41C93.8157 50.3798 93.8967 50.3148 93.9467 50.2277C93.9967 50.1406 94.0122 50.0379 93.99 49.94C93.8348 49.3498 93.5392 48.806 93.1282 48.355C92.7172 47.904 92.2032 47.5592 91.63 47.35C91.5345 47.3218 91.4317 47.3322 91.3439 47.3789C91.256 47.4257 91.1899 47.505 91.16 47.6C91.1314 47.6968 91.1415 47.8009 91.1881 47.8904C91.2348 47.9799 91.3143 48.0479 91.41 48.08C91.8577 48.2591 92.2573 48.5404 92.5768 48.9016C92.8963 49.2628 93.1268 49.6938 93.25 50.16C93.2757 50.2076 93.3113 50.2492 93.3544 50.282C93.3975 50.3148 93.4472 50.3379 93.5 50.35Z" fill="#263238"/>
<path d="M78.5101 37.94V41.5C77.8813 41.7115 77.3552 42.152 77.0365 42.7339C76.7178 43.3157 76.6298 43.9962 76.7901 44.64C77.5601 47.74 75.3301 52.12 72.8401 53.64C72.8401 53.64 72.9201 52.35 71.8401 52.52C70.7601 52.69 70.2101 59.4 71.9301 62.83C71.9301 62.83 69.0901 59.57 68.1501 52.35C67.2701 45.67 67.7301 40.25 69.3601 37.91L78.5101 37.94Z" fill="#263238"/>
<path d="M66.4501 52.72C67.0215 54.6604 68.3372 56.2961 70.1101 57.27C72.4701 58.54 74.2401 56.56 74.1101 54.03C73.9501 51.77 72.5501 48.33 69.9301 48.13C67.3101 47.93 65.7701 50.33 66.4501 52.72Z" fill="#E4897B"/>
<path d="M67.7501 44C67.7501 44 65.2801 38.07 71.7501 33.72C78.2201 29.37 93.5701 34.44 94.6501 37.97C95.7301 41.5 84.1201 47.91 67.7501 44Z" fill="#263238"/>
<path d="M71.72 74.04L81.51 79.4L82.85 72.08L89.71 76.54V85.89L82.45 81.56L77.35 89.2L67.28 78.14L71.72 74.04Z" fill="#6AAA7E"/>
<path d="M93.956 150.014L86.2478 150.441C85.6082 150.477 85.1183 151.024 85.1537 151.664L85.4424 156.876C85.4778 157.515 86.0251 158.005 86.6648 157.97L94.373 157.543C95.0126 157.507 95.5025 156.96 95.4671 156.321L95.1784 151.108C95.143 150.469 94.5957 149.979 93.956 150.014Z" fill="white"/>
<path opacity="0.5" d="M71.72 74.04L81.51 79.4L82.85 72.08L89.71 76.54V85.89L82.45 81.56L77.35 89.2L67.28 78.14L71.72 74.04Z" fill="white"/>
<path opacity="0.2" d="M78.5101 138.46C75.6001 142.84 66.2901 142.81 62.7901 140.39C62.2501 132.04 61.2201 122.9 60.0701 114.33L78.5101 138.46Z" fill="black"/>
<path d="M63.1802 104.74C63.1802 104.74 65.2502 118.22 67.2802 120.85C69.3102 123.48 111.28 146.43 111.28 146.43L125.79 145.38L132.46 153.03C132.46 153.03 113.13 156.03 111.02 155.45C109.733 155.094 108.483 154.611 107.29 154.01C107.29 154.01 63.2902 136.68 59.5902 132.72C55.8902 128.76 51.6802 108.43 51.6802 108.43L63.1802 104.74Z" fill="#E4897B"/>
<path d="M54.6401 80.49C62.3201 78.89 66.2901 110.76 66.2901 110.76L50.5801 114.76C50.5801 114.76 45.1901 82.47 54.6401 80.49Z" fill="#6AAA7E"/>
<path opacity="0.5" d="M54.6401 80.49C62.3201 78.89 66.2901 110.76 66.2901 110.76L50.5801 114.76C50.5801 114.76 45.1901 82.47 54.6401 80.49Z" fill="white"/>
<path d="M49.6602 114L67.2802 109.78V112.81L50.4501 117.69L49.6602 114Z" fill="#6AAA7E"/>
<path d="M110 313V175.92C110.001 169.987 108.183 164.197 104.79 159.33L100 152.47H185.1L189.89 159.33C193.283 164.197 195.101 169.987 195.1 175.92V311.7" stroke="#263238" stroke-width="6" stroke-linecap="round" stroke-linejoin="round"/>
<path d="M290.85 343.05C295.716 343.05 299.66 339.106 299.66 334.24C299.66 329.374 295.716 325.43 290.85 325.43C285.984 325.43 282.04 329.374 282.04 334.24C282.04 339.106 285.984 343.05 290.85 343.05Z" fill="#263238"/>
<path opacity="0.4" d="M295.26 334.24C295.262 333.367 295.005 332.514 294.522 331.787C294.038 331.061 293.35 330.494 292.545 330.159C291.739 329.823 290.852 329.735 289.996 329.904C289.14 330.073 288.353 330.492 287.735 331.108C287.117 331.724 286.696 332.51 286.525 333.366C286.354 334.222 286.441 335.109 286.775 335.915C287.108 336.722 287.673 337.411 288.399 337.896C289.124 338.381 289.977 338.64 290.85 338.64C291.429 338.641 292.002 338.528 292.537 338.308C293.072 338.087 293.558 337.764 293.968 337.355C294.377 336.946 294.702 336.461 294.924 335.926C295.146 335.392 295.26 334.819 295.26 334.24Z" fill="white"/>
<path d="M289.79 336.2C289.103 336.199 288.433 335.988 287.869 335.595C287.306 335.201 286.877 334.645 286.64 334L281.45 319.78H293.14V332.85C293.14 333.738 292.787 334.591 292.159 335.219C291.531 335.847 290.678 336.2 289.79 336.2Z" fill="#263238"/>
<path opacity="0.2" d="M289.79 336.2C289.103 336.199 288.433 335.988 287.869 335.595C287.306 335.201 286.877 334.645 286.64 334L281.45 319.78H293.14V332.85C293.14 333.738 292.787 334.591 292.159 335.219C291.531 335.847 290.678 336.2 289.79 336.2Z" fill="white"/>
<path d="M192.85 343.05C197.716 343.05 201.66 339.106 201.66 334.24C201.66 329.374 197.716 325.43 192.85 325.43C187.984 325.43 184.04 329.374 184.04 334.24C184.04 339.106 187.984 343.05 192.85 343.05Z" fill="#263238"/>
<path opacity="0.4" d="M197.26 334.24C197.262 333.367 197.005 332.514 196.522 331.787C196.038 331.061 195.35 330.494 194.545 330.159C193.739 329.823 192.852 329.735 191.996 329.904C191.14 330.073 190.353 330.492 189.735 331.108C189.117 331.724 188.696 332.51 188.525 333.366C188.354 334.222 188.441 335.109 188.775 335.915C189.108 336.722 189.673 337.411 190.399 337.896C191.124 338.381 191.977 338.64 192.85 338.64C193.429 338.641 194.002 338.528 194.537 338.308C195.072 338.087 195.558 337.764 195.968 337.355C196.377 336.946 196.702 336.461 196.924 335.926C197.146 335.392 197.26 334.819 197.26 334.24Z" fill="white"/>
<path d="M191.79 336.2C191.103 336.199 190.433 335.988 189.869 335.595C189.306 335.201 188.877 334.645 188.64 334L183.45 319.78H195.14V332.85C195.14 333.738 194.787 334.591 194.159 335.219C193.531 335.847 192.678 336.2 191.79 336.2Z" fill="#263238"/>
<path opacity="0.2" d="M191.79 336.2C191.103 336.199 190.433 335.988 189.869 335.595C189.306 335.201 188.877 334.645 188.64 334L183.45 319.78H195.14V332.85C195.14 333.738 194.787 334.591 194.159 335.219C193.531 335.847 192.678 336.2 191.79 336.2Z" fill="white"/>
<path d="M306 309.53V317.85C306 318.595 305.704 319.31 305.177 319.837C304.65 320.364 303.935 320.66 303.19 320.66H106.26C105.515 320.66 104.8 320.364 104.273 319.837C103.746 319.31 103.45 318.595 103.45 317.85V309.53H306Z" fill="#263238"/>
<path opacity="0.4" d="M306 309.53V317.85C306 318.595 305.704 319.31 305.177 319.837C304.65 320.364 303.935 320.66 303.19 320.66H106.26C105.515 320.66 104.8 320.364 104.273 319.837C103.746 319.31 103.45 318.595 103.45 317.85V309.53H306Z" fill="white"/>
<path opacity="0.2" d="M236 309.53V317.85C236 318.595 235.704 319.31 235.177 319.837C234.65 320.364 233.935 320.66 233.19 320.66H106.26C105.515 320.66 104.8 320.364 104.273 319.837C103.746 319.31 103.45 318.595 103.45 317.85V309.53H236Z" fill="white"/>
<path d="M219.85 343.05C224.716 343.05 228.66 339.106 228.66 334.24C228.66 329.374 224.716 325.43 219.85 325.43C214.984 325.43 211.04 329.374 211.04 334.24C211.04 339.106 214.984 343.05 219.85 343.05Z" fill="#263238"/>
<path opacity="0.6" d="M224.26 334.24C224.262 333.367 224.005 332.514 223.522 331.787C223.038 331.061 222.35 330.494 221.545 330.159C220.739 329.823 219.852 329.735 218.996 329.904C218.14 330.073 217.353 330.492 216.735 331.108C216.117 331.724 215.696 332.51 215.525 333.366C215.354 334.222 215.441 335.109 215.775 335.915C216.108 336.722 216.673 337.411 217.399 337.896C218.124 338.381 218.977 338.64 219.85 338.64C220.429 338.641 221.002 338.528 221.537 338.308C222.072 338.087 222.558 337.764 222.968 337.355C223.377 336.946 223.702 336.461 223.924 335.926C224.146 335.392 224.26 334.819 224.26 334.24Z" fill="white"/>
<path d="M218.79 336.2C218.103 336.199 217.433 335.988 216.869 335.595C216.306 335.201 215.877 334.645 215.64 334L210.45 319.78H222.14V332.85C222.14 333.738 221.787 334.591 221.159 335.219C220.531 335.847 219.678 336.2 218.79 336.2Z" fill="#263238"/>
<path opacity="0.4" d="M218.79 336.2C218.103 336.199 217.433 335.988 216.869 335.595C216.306 335.201 215.877 334.645 215.64 334L210.45 319.78H222.14V332.85C222.14 333.738 221.787 334.591 221.159 335.219C220.531 335.847 219.678 336.2 218.79 336.2Z" fill="white"/>
<path d="M121.85 343.05C126.716 343.05 130.66 339.106 130.66 334.24C130.66 329.374 126.716 325.43 121.85 325.43C116.984 325.43 113.04 329.374 113.04 334.24C113.04 339.106 116.984 343.05 121.85 343.05Z" fill="#263238"/>
<path opacity="0.6" d="M126.26 334.24C126.262 333.367 126.005 332.514 125.522 331.787C125.038 331.061 124.35 330.494 123.545 330.159C122.739 329.823 121.852 329.735 120.996 329.904C120.14 330.073 119.353 330.492 118.735 331.108C118.117 331.724 117.696 332.51 117.525 333.366C117.354 334.222 117.441 335.109 117.775 335.915C118.108 336.722 118.673 337.411 119.399 337.896C120.124 338.381 120.977 338.64 121.85 338.64C122.429 338.641 123.002 338.528 123.537 338.308C124.072 338.087 124.558 337.764 124.968 337.355C125.377 336.946 125.702 336.461 125.924 335.926C126.146 335.392 126.26 334.819 126.26 334.24Z" fill="white"/>
<path d="M120.79 336.2C120.103 336.199 119.433 335.988 118.869 335.595C118.306 335.201 117.877 334.645 117.64 334L112.45 319.78H124.14V332.85C124.14 333.738 123.787 334.591 123.159 335.219C122.531 335.847 121.678 336.2 120.79 336.2Z" fill="#263238"/>
<path opacity="0.4" d="M120.79 336.2C120.103 336.199 119.433 335.988 118.869 335.595C118.306 335.201 117.877 334.645 117.64 334L112.45 319.78H124.14V332.85C124.14 333.738 123.787 334.591 123.159 335.219C122.531 335.847 121.678 336.2 120.79 336.2Z" fill="white"/>
<path d="M221.09 244.98H127.84V309.53H221.09V244.98Z" fill="#6AAA7E"/>
<path opacity="0.4" d="M221.09 244.98H127.84V309.53H221.09V244.98Z" fill="white"/>
<path opacity="0.2" d="M171.11 244.98H127.84V309.53H171.11V244.98Z" fill="white"/>
<path opacity="0.2" d="M167.02 295.88H161.61C161.102 295.88 160.69 296.292 160.69 296.8V304.19C160.69 304.698 161.102 305.11 161.61 305.11H167.02C167.528 305.11 167.94 304.698 167.94 304.19V296.8C167.94 296.292 167.528 295.88 167.02 295.88Z" fill="black"/>
<path opacity="0.2" d="M157.26 295.88H151.85C151.342 295.88 150.93 296.292 150.93 296.8V304.19C150.93 304.698 151.342 305.11 151.85 305.11H157.26C157.768 305.11 158.18 304.698 158.18 304.19V296.8C158.18 296.292 157.768 295.88 157.26 295.88Z" fill="black"/>
<path opacity="0.4" d="M201.04 244.98H195.77V251.71H201.04V244.98Z" fill="black"/>
<path opacity="0.2" d="M215.45 272.54H179.15V280.98H215.45V272.54Z" fill="black"/>
<path opacity="0.2" d="M143.07 248.34H130.66V260.75H143.07V248.34Z" fill="black"/>
<path d="M230.61 180.43H137.36V244.98H230.61V180.43Z" fill="#6AAA7E"/>
<path opacity="0.4" d="M230.61 180.43H137.36V244.98H230.61V180.43Z" fill="black"/>
<path opacity="0.2" d="M180.63 180.43H137.36V244.98H180.63V180.43Z" fill="white"/>
<path opacity="0.2" d="M176.55 231.33H171.14C170.632 231.33 170.22 231.742 170.22 232.25V239.64C170.22 240.148 170.632 240.56 171.14 240.56H176.55C177.058 240.56 177.47 240.148 177.47 239.64V232.25C177.47 231.742 177.058 231.33 176.55 231.33Z" fill="black"/>
<path opacity="0.2" d="M166.79 231.33H161.38C160.872 231.33 160.46 231.742 160.46 232.25V239.64C160.46 240.148 160.872 240.56 161.38 240.56H166.79C167.298 240.56 167.71 240.148 167.71 239.64V232.25C167.71 231.742 167.298 231.33 166.79 231.33Z" fill="black"/>
<path opacity="0.4" d="M210.56 180.43H205.29V187.16H210.56V180.43Z" fill="black"/>
<path opacity="0.2" d="M224.97 207.99H188.67V216.43H224.97V207.99Z" fill="black"/>
<path opacity="0.2" d="M152.6 183.79H140.19V196.2H152.6V183.79Z" fill="black"/>
<path d="M287.69 180.43H194.44V244.98H287.69V180.43Z" fill="#6AAA7E"/>
<path opacity="0.4" d="M287.69 180.43H194.44V244.98H287.69V180.43Z" fill="white"/>
<path opacity="0.2" d="M237.71 180.43H194.44V244.98H237.71V180.43Z" fill="white"/>
<path opacity="0.2" d="M233.63 231.33H228.22C227.712 231.33 227.3 231.742 227.3 232.25V239.64C227.3 240.148 227.712 240.56 228.22 240.56H233.63C234.138 240.56 234.55 240.148 234.55 239.64V232.25C234.55 231.742 234.138 231.33 233.63 231.33Z" fill="black"/>
<path opacity="0.2" d="M223.87 231.33H218.46C217.952 231.33 217.54 231.742 217.54 232.25V239.64C217.54 240.148 217.952 240.56 218.46 240.56H223.87C224.378 240.56 224.79 240.148 224.79 239.64V232.25C224.79 231.742 224.378 231.33 223.87 231.33Z" fill="black"/>
<path opacity="0.4" d="M267.64 180.43H262.37V187.16H267.64V180.43Z" fill="black"/>
<path opacity="0.2" d="M282.05 207.99H245.75V216.43H282.05V207.99Z" fill="black"/>
<path opacity="0.2" d="M209.68 183.79H197.27V196.2H209.68V183.79Z" fill="black"/>
<path d="M255.44 115.88H162.19V180.43H255.44V115.88Z" fill="#6AAA7E"/>
<path opacity="0.2" d="M205.46 115.88H162.19V180.43H205.46V115.88Z" fill="white"/>
<path opacity="0.2" d="M201.37 166.78H195.96C195.452 166.78 195.04 167.192 195.04 167.7V175.09C195.04 175.598 195.452 176.01 195.96 176.01H201.37C201.878 176.01 202.29 175.598 202.29 175.09V167.7C202.29 167.192 201.878 166.78 201.37 166.78Z" fill="black"/>
<path opacity="0.2" d="M191.62 166.78H186.21C185.702 166.78 185.29 167.192 185.29 167.7V175.09C185.29 175.598 185.702 176.01 186.21 176.01H191.62C192.128 176.01 192.54 175.598 192.54 175.09V167.7C192.54 167.192 192.128 166.78 191.62 166.78Z" fill="black"/>
<path opacity="0.4" d="M235.39 115.88H230.12V122.61H235.39V115.88Z" fill="black"/>
<path opacity="0.2" d="M249.8 143.44H213.5V151.88H249.8V143.44Z" fill="black"/>
<path opacity="0.2" d="M177.42 119.24H165.01V131.65H177.42V119.24Z" fill="black"/>
<path d="M280.43 244.98H187.18V309.53H280.43V244.98Z" fill="#263238"/>
<path opacity="0.2" d="M280.43 244.98H187.18V309.53H280.43V244.98Z" fill="white"/>
<path opacity="0.2" d="M230.45 244.98H187.18V309.53H230.45V244.98Z" fill="white"/>
<path opacity="0.2" d="M226.36 295.88H220.95C220.442 295.88 220.03 296.292 220.03 296.8V304.19C220.03 304.698 220.442 305.11 220.95 305.11H226.36C226.868 305.11 227.28 304.698 227.28 304.19V296.8C227.28 296.292 226.868 295.88 226.36 295.88Z" fill="black"/>
<path opacity="0.2" d="M216.6 295.88H211.19C210.682 295.88 210.27 296.292 210.27 296.8V304.19C210.27 304.698 210.682 305.11 211.19 305.11H216.6C217.108 305.11 217.52 304.698 217.52 304.19V296.8C217.52 296.292 217.108 295.88 216.6 295.88Z" fill="black"/>
<path opacity="0.4" d="M260.38 244.98H255.11V251.71H260.38V244.98Z" fill="black"/>
<path opacity="0.2" d="M274.79 272.54H238.49V280.98H274.79V272.54Z" fill="black"/>
<path opacity="0.2" d="M202.41 248.34H190V260.75H202.41V248.34Z" fill="black"/>
</svg>
