<svg width="652" height="482" viewBox="0 0 652 482" fill="none" xmlns="http://www.w3.org/2000/svg">
<path d="M448.092 474.257C436.954 464.845 430.188 449.977 431.963 435.503C433.737 421.029 444.726 407.723 458.981 404.649C473.236 401.576 489.485 410.084 493.815 424.009C496.198 397.162 498.943 369.191 513.217 346.329C526.141 325.628 548.525 310.815 572.785 308.165C597.045 305.515 622.588 315.524 637.718 334.672C652.848 353.82 656.553 381.658 645.956 403.641C638.15 419.836 623.768 431.888 608.699 441.693C560.007 473.11 501.608 485.886 444.246 477.67L448.092 474.257Z" fill="#F2F2F2"/>
<path d="M613.728 316.079C593.71 332.383 575.346 350.619 558.902 370.521C533.166 401.562 512.34 436.364 497.15 473.715C496.038 476.44 500.462 477.626 501.562 474.932C526.416 414.228 566.093 360.724 616.963 319.314C619.248 317.454 615.993 314.234 613.728 316.079Z" fill="white"/>
<path d="M283 480.19C283 480.346 283.03 480.501 283.09 480.646C283.149 480.791 283.237 480.922 283.348 481.032C283.458 481.143 283.589 481.231 283.734 481.29C283.879 481.35 284.034 481.38 284.19 481.38H537.48C537.796 481.38 538.098 481.255 538.321 481.031C538.545 480.808 538.67 480.506 538.67 480.19C538.67 479.874 538.545 479.572 538.321 479.349C538.098 479.125 537.796 479 537.48 479H284.19C284.034 479 283.879 479.03 283.734 479.09C283.589 479.149 283.458 479.237 283.348 479.347C283.237 479.458 283.149 479.589 283.09 479.734C283.03 479.879 283 480.034 283 480.19Z" fill="#CCCCCC"/>
<path d="M314.737 107.789H288.481V331.635C288.481 335.147 287.79 338.625 286.445 341.87C285.101 345.114 283.131 348.063 280.648 350.546C278.165 353.03 275.216 354.999 271.972 356.343C268.727 357.687 265.249 358.379 261.737 358.379H61V358.635C61 362.147 61.6917 365.625 63.0357 368.87C64.3797 372.114 66.3497 375.063 68.8331 377.546C71.3165 380.03 74.2648 381.999 77.5096 383.343C80.7543 384.687 84.232 385.379 87.7441 385.379H314.737C318.249 385.379 321.727 384.687 324.972 383.343C328.216 381.999 331.165 380.03 333.648 377.546C336.131 375.063 338.101 372.114 339.445 368.87C340.789 365.625 341.481 362.147 341.481 358.635V134.533C341.481 127.44 338.664 120.637 333.648 115.622C328.633 110.606 321.83 107.789 314.737 107.789Z" fill="#F2F2F2"/>
<path d="M240.724 77.3395C241.382 78.3362 242.249 79.1782 243.264 79.8071C244.28 80.4361 245.419 80.837 246.605 80.9821C247.79 81.1272 248.993 81.013 250.13 80.6475C251.267 80.282 252.311 79.6739 253.19 78.8652L290.655 95.768L297.878 86.5547L253.234 66.8044C251.763 65.4262 249.837 64.6356 247.822 64.5824C245.806 64.5292 243.842 65.2171 242.3 66.5157C240.758 67.8142 239.746 69.6333 239.456 71.6282C239.165 73.6231 239.617 75.6552 240.724 77.3395Z" fill="#A0616A"/>
<path d="M401.508 87.8792L405.224 108.936C405.397 109.918 405.363 110.926 405.124 111.894C404.885 112.862 404.446 113.77 403.835 114.559C403.225 115.348 402.456 116 401.578 116.474C400.7 116.948 399.733 117.233 398.739 117.312L335.6 122.277L261.383 89.0612L270.248 72.234L334.674 92.6362L401.508 87.8792Z" fill="#BFBFBF"/>
<path d="M253.737 72.7888H26.7441C11.9737 72.7888 0 84.7626 0 99.5329V323.635C0 338.406 11.9737 350.379 26.7441 350.379H253.737C268.508 350.379 280.481 338.406 280.481 323.635V99.5329C280.481 84.7626 268.508 72.7888 253.737 72.7888Z" fill="#F2F2F2"/>
<path d="M26.7443 78.2887C23.9544 78.2887 21.1919 78.8381 18.6145 79.9058C16.037 80.9734 13.6951 82.5382 11.7224 84.5109C9.74968 86.4836 8.18484 88.8256 7.11722 91.403C6.0496 93.9805 5.50012 96.743 5.50012 99.5328V323.635C5.50012 329.27 7.73833 334.673 11.7224 338.657C15.7064 342.641 21.11 344.879 26.7443 344.879H171.617C185.191 344.879 198.632 342.206 211.173 337.011C223.713 331.817 235.108 324.203 244.706 314.605C254.305 305.006 261.918 293.612 267.113 281.071C272.307 268.53 274.981 255.089 274.981 241.515V99.5328C274.981 96.743 274.432 93.9805 273.364 91.403C272.296 88.8256 270.732 86.4836 268.759 84.5109C266.786 82.5382 264.444 80.9734 261.867 79.9058C259.289 78.8381 256.527 78.2887 253.737 78.2887H26.7443Z" fill="white"/>
<path d="M203.696 146.3H76.2892C75.1202 146.3 73.999 145.836 73.1723 145.009C72.3456 144.182 71.8812 143.061 71.8812 141.892C71.8812 140.723 72.3456 139.602 73.1723 138.775C73.999 137.948 75.1202 137.484 76.2892 137.484H203.696C204.865 137.484 205.986 137.948 206.813 138.775C207.639 139.602 208.104 140.723 208.104 141.892C208.104 143.061 207.639 144.182 206.813 145.009C205.986 145.836 204.865 146.3 203.696 146.3Z" fill="#F2F2F2"/>
<path d="M203.696 240.3H76.2892C75.1202 240.3 73.999 239.836 73.1723 239.009C72.3456 238.182 71.8812 237.061 71.8812 235.892C71.8812 234.723 72.3456 233.602 73.1723 232.775C73.999 231.948 75.1202 231.484 76.2892 231.484H203.696C204.865 231.484 205.986 231.948 206.813 232.775C207.639 233.602 208.104 234.723 208.104 235.892C208.104 237.061 207.639 238.182 206.813 239.009C205.986 239.836 204.865 240.3 203.696 240.3Z" fill="#F2F2F2"/>
<path d="M255.433 193.331H24.5522C23.3831 193.331 22.2619 192.866 21.4352 192.04C20.6086 191.213 20.1442 190.092 20.1442 188.923C20.1442 187.754 20.6086 186.632 21.4352 185.806C22.2619 184.979 23.3831 184.515 24.5522 184.515H255.433C256.602 184.515 257.723 184.979 258.55 185.806C259.376 186.632 259.841 187.754 259.841 188.923C259.841 190.092 259.376 191.213 258.55 192.04C257.723 192.866 256.602 193.331 255.433 193.331Z" fill="#F2F2F2"/>
<path d="M393.531 180.687L370.531 229.687L459.008 220.726L440.539 173.687L393.531 180.687Z" fill="#A0616A"/>
<path d="M414.101 462.32L405.712 462.249L401.999 429.138L414.379 429.243L414.101 462.32Z" fill="#A0616A"/>
<path d="M387.231 475.659C387.223 476.654 387.611 477.61 388.308 478.32C389.005 479.029 389.955 479.433 390.949 479.442L407.628 479.582L410.548 473.663L411.62 479.612L417.913 479.669L416.324 458.452L414.135 458.306L405.204 457.691L402.323 457.498L402.272 463.501L388.874 472.588C388.372 472.929 387.961 473.386 387.674 473.921C387.388 474.456 387.236 475.052 387.231 475.659Z" fill="#2F2E41"/>
<path d="M321.266 462.358L313.268 459.825L319.447 427.085L331.251 430.822L321.266 462.358Z" fill="#A0616A"/>
<path d="M291.663 467.214C291.363 468.162 291.452 469.19 291.91 470.073C292.368 470.956 293.158 471.621 294.105 471.922L310.007 476.956L314.537 472.156L313.814 478.158L319.813 480.061L324.528 459.314L322.477 458.532L314.122 455.319L311.424 454.288L309.612 460.011L294.136 464.761C293.556 464.939 293.028 465.256 292.597 465.683C292.166 466.11 291.846 466.635 291.663 467.214Z" fill="#2F2E41"/>
<path d="M454.978 206.946L374.531 221.687C374.531 221.687 361.628 231.339 365.08 234.796C368.531 238.252 369.067 237.717 366.799 239.985C364.531 242.253 359.628 245.284 359.58 247.268C359.531 249.252 323.531 338.252 323.531 338.252C323.531 338.252 327.531 336.252 324.531 339.252C321.531 342.252 321.531 344.731 321.531 344.731L307.531 439.252L330.268 440.591L352.531 354.418L402.191 273.914C402.191 273.914 407.118 345.703 407.325 350.478C407.531 355.252 410.531 349.252 407.531 355.252C404.531 361.252 402.531 357.252 404.531 361.252C406.531 365.252 397.327 446.687 397.327 446.687H418.08L462.589 277.896C462.589 277.896 478.425 229.64 454.978 206.946Z" fill="#2F2E41"/>
<path d="M431.28 71.9345L399.055 68.5862L390.706 79.4255L380.98 84.6057C376.864 86.7979 373.466 90.1293 371.194 94.2014C368.921 98.2736 367.87 102.914 368.165 107.568L379.531 173.687C379.531 173.687 369.93 195.306 376.531 200.687C383.132 206.068 371.428 219.394 385.531 212.687C399.635 205.98 460.531 213.687 460.531 213.687L447.531 176.687L457.243 140.33L458.312 109.844C458.511 104.148 456.821 98.5449 453.504 93.9095C450.186 89.274 445.429 85.8663 439.972 84.2174L438.614 83.8071L431.28 71.9345Z" fill="#BFBFBF"/>
<path d="M475.644 47.2302C475.855 56.3132 472.461 65.1082 467.584 72.8332C466.135 68.3234 463.531 64.219 460.814 60.3063C462.183 68.7705 460.725 77.4501 456.664 85.0018C456.521 85.1042 456.373 85.1993 456.22 85.2868C452.245 87.6778 447.206 88.6462 442.906 86.9193C451.79 77.3426 452.921 61.4754 445.472 50.7336C443.363 47.6856 440.636 44.9899 439.33 41.5212C437.268 35.9867 439.25 29.893 440.501 24.1227C441.67 18.7523 441.875 12.3614 438.272 8.42561C438.657 7.87558 439.181 7.43776 439.791 7.15701C440.4 6.87625 441.074 6.76267 441.742 6.82787C443.963 7.14166 445.58 9.07253 446.61 11.0612C447.64 13.0498 448.319 15.2539 449.754 16.9715C452.412 20.1865 456.939 20.9466 460.753 22.641C469.991 26.7556 475.423 37.1233 475.644 47.2302Z" fill="#2F2E41"/>
<path d="M477.638 257.748C482.609 257.748 486.638 253.718 486.638 248.748C486.638 243.777 482.609 239.748 477.638 239.748C472.668 239.748 468.638 243.777 468.638 248.748C468.638 253.718 472.668 257.748 477.638 257.748Z" fill="#BFBFBF"/>
<path d="M397.886 42.0369C398.414 40.1893 394.776 51.4832 396.531 51.6871C404.528 52.6045 415.505 57.3803 421.075 59.6083C421.326 59.5791 421.576 59.55 421.82 59.5136C422.417 59.4481 423 59.3534 423.576 59.2442C436.544 56.7905 441.531 36.8691 441.531 36.6871C441.531 35.7915 439.382 11.1941 435.996 10.8301C435.107 10.7336 434.213 10.685 433.318 10.6845H424.916C423.177 10.3098 421.415 10.0544 419.641 9.91997H419.627C402.711 8.6312 389.374 18.9412 390.62 31.4866C390.628 31.5011 390.643 31.5157 390.65 31.5303C391.011 32.0691 391.329 32.5788 391.609 33.0666C391.882 33.5253 392.111 33.9621 392.31 34.3772C393.851 37.5809 389.888 41.6121 392.516 42.3646C396.011 43.3653 383.324 76.2581 397.158 76.2581C390.429 78.1713 396.43 47.1336 397.886 42.0369Z" fill="#2F2E41"/>
<path d="M412.986 61.337C423.973 61.337 432.88 52.4303 432.88 41.4434C432.88 30.4565 423.973 21.5499 412.986 21.5499C401.999 21.5499 393.093 30.4565 393.093 41.4434C393.093 52.4303 401.999 61.337 412.986 61.337Z" fill="#A0616A"/>
<path d="M390.62 32.5714C390.952 32.7462 391.277 32.9063 391.609 33.0665C391.956 33.234 392.302 33.4015 392.649 33.5544C399.31 36.576 404.732 36.9109 408.023 32.5714C408.111 30.288 408.623 28.0411 409.535 25.9456C409.374 28.2873 409.991 30.6167 411.291 32.5714H417.915C424.739 37.1002 428.243 37.5735 423.507 52.4415C422.186 56.5845 416.936 80.6922 419.001 84.2673C419.599 84.2017 425.956 57.7963 426.531 57.6871C439.5 55.2334 447.74 33.8674 446.685 32.6588C446.69 29.2217 445.9 25.83 444.376 22.7492C442.448 18.846 439.443 15.5765 435.716 13.3275C433.494 12.2502 431.177 11.38 428.796 10.7281C428.737 10.7135 428.685 10.6989 428.626 10.6844C427.896 10.4878 427.151 10.3058 426.406 10.1529C424.867 9.82787 423.31 9.59206 421.744 9.44662C421.633 9.43933 421.522 9.43204 421.419 9.43204C420.794 9.4335 420.18 9.60192 419.641 9.91991C419.634 9.91991 419.634 9.92715 419.626 9.92715C419.242 10.1521 418.905 10.4516 418.638 10.8082C418.167 11.4081 417.912 12.1496 417.915 12.9124H410.538C410.265 12.9124 409.992 12.9197 409.719 12.9342C404.796 13.1025 400.112 15.1019 396.585 18.5414C393.058 21.9808 390.942 26.6125 390.65 31.5302C390.628 31.8797 390.62 32.2219 390.62 32.5714Z" fill="#2F2E41"/>
<path d="M434.117 26.212C441.355 26.212 447.223 20.3442 447.223 13.106C447.223 5.86775 441.355 0 434.117 0C426.878 0 421.011 5.86775 421.011 13.106C421.011 20.3442 426.878 26.212 434.117 26.212Z" fill="#2F2E41"/>
<path d="M477.739 252.459C478.379 251.45 478.792 250.315 478.95 249.131C479.107 247.947 479.006 246.743 478.652 245.602C478.299 244.461 477.702 243.411 476.902 242.524C476.103 241.636 475.121 240.933 474.023 240.463L474.088 199.361L462.723 196.548L463.003 245.366C462.349 247.272 462.417 249.353 463.194 251.213C463.972 253.073 465.404 254.583 467.221 255.458C469.037 256.332 471.111 256.51 473.05 255.957C474.989 255.404 476.657 254.16 477.739 252.459Z" fill="#A0616A"/>
<path d="M407.463 98.4771L425.148 86.4587C425.973 85.898 426.906 85.5161 427.887 85.3373C428.869 85.1586 429.876 85.187 430.846 85.4208C431.816 85.6546 432.726 86.0886 433.518 86.6949C434.31 87.3013 434.967 88.0665 435.446 88.9416L465.849 144.5L465.966 225.811L446.984 224.621L439.191 157.491L407.463 98.4771Z" fill="#BFBFBF"/>
<path d="M285.645 285.878H96.6455C92.5347 285.878 88.5921 287.511 85.6853 290.417C82.7785 293.324 81.1455 297.267 81.1455 301.378C81.1455 305.488 82.7785 309.431 85.6853 312.338C88.5921 315.245 92.5347 316.878 96.6455 316.878H285.645C289.756 316.878 293.699 315.245 296.606 312.338C299.512 309.431 301.145 305.488 301.145 301.378C301.145 297.267 299.512 293.324 296.606 290.417C293.699 287.511 289.756 285.878 285.645 285.878Z" fill="white"/>
<path d="M285.645 317.878H96.6455C92.2694 317.878 88.0726 316.139 84.9782 313.045C81.8839 309.95 80.1455 305.754 80.1455 301.378C80.1455 297.001 81.8839 292.805 84.9782 289.71C88.0726 286.616 92.2694 284.878 96.6455 284.878H285.645C290.022 284.878 294.218 286.616 297.313 289.71C300.407 292.805 302.145 297.001 302.145 301.378C302.145 305.754 300.407 309.95 297.313 313.045C294.218 316.139 290.022 317.878 285.645 317.878ZM96.6455 286.878C92.7999 286.878 89.1117 288.405 86.3925 291.125C83.6732 293.844 82.1455 297.532 82.1455 301.378C82.1455 305.223 83.6732 308.911 86.3925 311.631C89.1117 314.35 92.7999 315.878 96.6455 315.878H285.645C289.491 315.878 293.179 314.35 295.899 311.631C298.618 308.911 300.145 305.223 300.145 301.378C300.145 297.532 298.618 293.844 295.899 291.125C293.179 288.405 289.491 286.878 285.645 286.878H96.6455Z" fill="#BFBFBF"/>
<path d="M296.79 353.52H213.384C212.215 353.52 211.093 353.056 210.267 352.229C209.44 351.403 208.976 350.281 208.976 349.112C208.976 347.943 209.44 346.822 210.267 345.995C211.093 345.169 212.215 344.704 213.384 344.704H296.79C297.959 344.704 299.08 345.169 299.907 345.995C300.734 346.822 301.198 347.943 301.198 349.112C301.198 350.281 300.734 351.403 299.907 352.229C299.08 353.056 297.959 353.52 296.79 353.52Z" fill="#BFBFBF"/>
</svg>
